# xmcd
#
# Track frame offsets:
# 150
# 18092
# 34901
# 48939
# 65215
# 82033
# 101245
# 116994
# 133973
# 150961
# 168459
# 183578
# 200539
# 215595
# 231557
# 247264
# 263588
# 279404
# 297869
# 308916
#
# Disc length: 4342 seconds
#
# Revision: 0
# Processed by: cddbd v1.5.1PL0 Copyright (c) Steve Scherf et al.
# Submitted via: Audion 3.0.2 (http://www.panic.com/audion/)
#
DISCID=3610f414
DTITLE=Nhu Quynh - Tieng hat chim da da
DYEAR=1900
DGENRE=
TTITLE0=Tieng hat chim da da
TTITLE1=Nho em
TTITLE2=Lo yeu roi
TTITLE3=Nho tan phi
TTITLE4=Co be nho xinh
TTITLE5=Phan gai thuyen quyen
TTITLE6=Ton nu con buon
TTITLE7=Anh mat tinh yeu
TTITLE8=Toi van nho
TTITLE9=Ngay da dom bong
TTITLE10=Tinh ca cho em
TTITLE11=Qua xom nho
TTITLE12=Em bo giong song
TTITLE13=Ngau hung ly qua cau
TTITLE14=Cuon theo chieu gio
TTITLE15=Con duong co la me bay
TTITLE16=Ve hue chieu xuan
TTITLE17=Nu hong xot xa
TTITLE18=Huong xua
TTITLE19=Chan que
EXTD=
EXTT0=
EXTT1=
EXTT2=
EXTT3=
EXTT4=
EXTT5=
EXTT6=
EXTT7=
EXTT8=
EXTT9=
EXTT10=
EXTT11=
EXTT12=
EXTT13=
EXTT14=
EXTT15=
EXTT16=
EXTT17=
EXTT18=
EXTT19=
PLAYORDER=
